<svg xmlns:dc="http://purl.org/dc/elements/1.1/" xmlns:cc="http://creativecommons.org/ns#" xmlns:rdf="http://www.w3.org/1999/02/22-rdf-syntax-ns#" xmlns:svg="http://www.w3.org/2000/svg" xmlns="http://www.w3.org/2000/svg" xmlns:sodipodi="http://sodipodi.sourceforge.net/DTD/sodipodi-0.dtd" xmlns:inkscape="http://www.inkscape.org/namespaces/inkscape" version="1.1" x="0px" y="0px" viewBox="0 0 100 125"><g transform="translate(0,-952.36218)"><path d="m 50,967.36217 c -19.29444,0 -35,15.7056 -35,35.00003 0,19.2944 15.70556,35 35,35 19.29444,0 35,-15.7056 35,-35 0,-19.29443 -15.70556,-35.00003 -35,-35.00003 z m 0,6 c 16.05179,0 29,12.9483 29,29.00003 0,6.0594 -1.83934,11.6672 -5,16.3125 l 0,-2.3125 c 0,-4.8056 -3.2747,-8.7505 -7.65625,-11.2188 -4.38155,-2.4682 -10.08787,-3.7812 -16.34375,-3.7812 -6.25588,0 -11.9622,1.313 -16.34375,3.7812 C 29.2747,1007.6117 26,1011.5566 26,1016.3622 l 0,2.3125 c -3.16066,-4.6453 -5,-10.2531 -5,-16.3125 0,-16.05173 12.9482,-29.00003 29,-29.00003 z m 0,28.00003 c 7.1442,0 13,-5.85583 13,-13.00003 0,-7.1442 -5.8558,-13 -13,-13 -7.1442,0 -13,5.8558 -13,13 0,7.1442 5.8558,13.00003 13,13.00003 z m 0,-20.00003 c 3.90153,0 7,3.0985 7,7 0,3.9015 -3.09847,7 -7,7 -3.90154,0 -7,-3.0985 -7,-7 0,-3.9015 3.09846,-7 7,-7 z m 0,26.00003 c 5.37812,0 10.16505,1.223 13.375,3.0312 3.20995,1.8083 4.625,3.8803 4.625,5.9688 l 0,8.75 c -4.94024,3.9069 -11.19232,6.25 -18,6.25 -6.80768,0 -13.05976,-2.3431 -18,-6.25 l 0,-8.75 c 0,-2.0885 1.41505,-4.1605 4.625,-5.9688 3.20995,-1.8082 7.99688,-3.0312 13.375,-3.0312 z" style="text-indent:0;text-transform:none;direction:ltr;block-progression:tb;baseline-shift:baseline;color:#000000;enable-background:accumulate;" fill="#000000" fill-opacity="1" stroke="none" marker="none" visibility="visible" display="inline" overflow="visible"/></g><text x="0" y="115" fill="#000000" font-size="5px" font-weight="bold" font-family="'Helvetica Neue', Helvetica, Arial-Unicode, Arial, Sans-serif">Created by iconsphere</text><text x="0" y="120" fill="#000000" font-size="5px" font-weight="bold" font-family="'Helvetica Neue', Helvetica, Arial-Unicode, Arial, Sans-serif">from the Noun Project</text></svg>